<svg width="334" height="75" viewBox="0 0 334 75" fill="none" xmlns="http://www.w3.org/2000/svg">
<g clip-path="url(#clip0_211_2)">
<rect width="334" height="75" fill="black"/>
<rect x="7.33789" y="20.4937" width="43.705" height="38.6076" rx="8" fill="white"/>
<path d="M17.4101 24.6076C17.4101 20.9987 18.7555 17.5375 21.1503 14.9856C23.5451 12.4337 26.7932 11 30.1799 11C33.5667 11 36.8147 12.4337 39.2095 14.9856C41.6043 17.5375 42.9497 20.9987 42.9497 24.6076L40.5173 24.6076C40.5173 21.6861 39.4282 18.8842 37.4896 16.8184C35.5509 14.7526 32.9216 13.592 30.1799 13.592C27.4383 13.592 24.8089 14.7526 22.8703 16.8184C20.9316 18.8842 19.8425 21.6861 19.8425 24.6076L17.4101 24.6076Z" fill="white"/>
<path d="M29.9998 29.4735L35.208 34.8478L11.9238 58.6067L10.7453 58.1507L9.86138 57.5426L9.12482 56.9346L8.53558 56.0225L8.09364 55.4145L7.79901 54.6545L7.50439 53.7424L7.37938 52.8151L29.9998 29.4735Z" fill="black"/>
<path d="M24.8618 34.7953L30.0701 29.421L51.0299 51.049L51.0299 52.1799L50.8838 53.2864L50.6668 54.3504L50.2946 55.4145L49.1936 56.9346L48.4571 57.5426L47.7205 57.9986L24.8618 34.7953Z" fill="black"/>
<path d="M68.7812 41.9531C68.7812 41.151 68.4948 40.526 67.9219 40.0781C67.3594 39.6302 66.3646 39.1667 64.9375 38.6875C63.5104 38.2083 62.3438 37.7448 61.4375 37.2969C58.4896 35.849 57.0156 33.8594 57.0156 31.3281C57.0156 30.0677 57.3802 28.9583 58.1094 28C58.849 27.0312 59.8906 26.2812 61.2344 25.75C62.5781 25.2083 64.0885 24.9375 65.7656 24.9375C67.401 24.9375 68.8646 25.2292 70.1562 25.8125C71.4583 26.3958 72.4688 27.2292 73.1875 28.3125C73.9062 29.3854 74.2656 30.6146 74.2656 32H68.7969C68.7969 31.0729 68.5104 30.3542 67.9375 29.8438C67.375 29.3333 66.6094 29.0781 65.6406 29.0781C64.6615 29.0781 63.8854 29.2969 63.3125 29.7344C62.75 30.1615 62.4688 30.7083 62.4688 31.375C62.4688 31.9583 62.7812 32.4896 63.4062 32.9688C64.0312 33.4375 65.1302 33.9271 66.7031 34.4375C68.276 34.9375 69.5677 35.4792 70.5781 36.0625C73.0365 37.4792 74.2656 39.4323 74.2656 41.9219C74.2656 43.9115 73.5156 45.474 72.0156 46.6094C70.5156 47.7448 68.4583 48.3125 65.8438 48.3125C64 48.3125 62.3281 47.9844 60.8281 47.3281C59.3385 46.6615 58.2135 45.7552 57.4531 44.6094C56.7031 43.4531 56.3281 42.125 56.3281 40.625H61.8281C61.8281 41.8438 62.1406 42.7448 62.7656 43.3281C63.401 43.901 64.4271 44.1875 65.8438 44.1875C66.75 44.1875 67.4635 43.9948 67.9844 43.6094C68.5156 43.2135 68.7812 42.6615 68.7812 41.9531ZM81.9844 32.9062C83.1094 31.4896 84.5469 30.7812 86.2969 30.7812C88.1615 30.7812 89.5677 31.3333 90.5156 32.4375C91.4635 33.5417 91.9479 35.1719 91.9688 37.3281V48H86.6875V37.4531C86.6875 36.5573 86.5052 35.901 86.1406 35.4844C85.776 35.0573 85.1562 34.8438 84.2812 34.8438C83.1979 34.8438 82.4323 35.1875 81.9844 35.875V48H76.7188V24H81.9844V32.9062ZM94.2344 39.3906C94.2344 37.7031 94.5625 36.2031 95.2188 34.8906C95.875 33.5677 96.8177 32.5521 98.0469 31.8438C99.276 31.1354 100.719 30.7812 102.375 30.7812C104.906 30.7812 106.901 31.5677 108.359 33.1406C109.818 34.7031 110.547 36.8333 110.547 39.5312V39.7188C110.547 42.3542 109.812 44.4479 108.344 46C106.885 47.5417 104.906 48.3125 102.406 48.3125C100 48.3125 98.0677 47.5938 96.6094 46.1562C95.151 44.7083 94.3646 42.75 94.25 40.2812L94.2344 39.3906ZM99.5 39.7188C99.5 41.2812 99.7448 42.4271 100.234 43.1562C100.724 43.8854 101.448 44.25 102.406 44.25C104.281 44.25 105.24 42.8073 105.281 39.9219V39.3906C105.281 36.3594 104.312 34.8438 102.375 34.8438C100.615 34.8438 99.6615 36.151 99.5156 38.7656L99.5 39.7188ZM128.562 39.6719C128.562 42.2969 127.969 44.3958 126.781 45.9688C125.604 47.5312 124.01 48.3125 122 48.3125C120.448 48.3125 119.172 47.7448 118.172 46.6094V54.5H112.906V31.0938H117.828L117.984 32.6562C118.995 31.4062 120.323 30.7812 121.969 30.7812C124.052 30.7812 125.672 31.5521 126.828 33.0938C127.984 34.625 128.562 36.7344 128.562 39.4219V39.6719ZM123.297 39.3438C123.297 36.3438 122.422 34.8438 120.672 34.8438C119.422 34.8438 118.589 35.2917 118.172 36.1875V42.8438C118.63 43.7812 119.474 44.25 120.703 44.25C122.38 44.25 123.245 42.8021 123.297 39.9062V39.3438ZM146.594 39.6719C146.594 42.2969 146 44.3958 144.812 45.9688C143.635 47.5312 142.042 48.3125 140.031 48.3125C138.479 48.3125 137.203 47.7448 136.203 46.6094V54.5H130.938V31.0938H135.859L136.016 32.6562C137.026 31.4062 138.354 30.7812 140 30.7812C142.083 30.7812 143.703 31.5521 144.859 33.0938C146.016 34.625 146.594 36.7344 146.594 39.4219V39.6719ZM141.328 39.3438C141.328 36.3438 140.453 34.8438 138.703 34.8438C137.453 34.8438 136.62 35.2917 136.203 36.1875V42.8438C136.661 43.7812 137.505 44.25 138.734 44.25C140.411 44.25 141.276 42.8021 141.328 39.9062V39.3438ZM154.484 48H149.203V31.0938H154.484V48ZM148.891 26.7344C148.891 25.9844 149.161 25.3698 149.703 24.8906C150.245 24.4115 150.948 24.1719 151.812 24.1719C152.677 24.1719 153.38 24.4115 153.922 24.8906C154.464 25.3698 154.734 25.9844 154.734 26.7344C154.734 27.4844 154.464 28.099 153.922 28.5781C153.38 29.0573 152.677 29.2969 151.812 29.2969C150.948 29.2969 150.245 29.0573 149.703 28.5781C149.161 28.099 148.891 27.4844 148.891 26.7344ZM162.578 31.0938L162.75 33.0781C163.917 31.5469 165.526 30.7812 167.578 30.7812C169.339 30.7812 170.651 31.3073 171.516 32.3594C172.391 33.4115 172.844 34.9948 172.875 37.1094V48H167.594V37.3281C167.594 36.474 167.422 35.849 167.078 35.4531C166.734 35.0469 166.109 34.8438 165.203 34.8438C164.172 34.8438 163.406 35.25 162.906 36.0625V48H157.641V31.0938H162.578ZM175.188 39.4219C175.188 37.7135 175.469 36.2031 176.031 34.8906C176.594 33.5781 177.401 32.5677 178.453 31.8594C179.505 31.1406 180.729 30.7812 182.125 30.7812C183.885 30.7812 185.26 31.375 186.25 32.5625L186.438 31.0938H191.219V47.3594C191.219 48.849 190.87 50.1406 190.172 51.2344C189.484 52.3385 188.484 53.1823 187.172 53.7656C185.859 54.3594 184.339 54.6562 182.609 54.6562C181.37 54.6562 180.167 54.4219 179 53.9531C177.844 53.4844 176.958 52.875 176.344 52.125L178.547 49.0312C179.526 50.1875 180.818 50.7656 182.422 50.7656C184.755 50.7656 185.922 49.5677 185.922 47.1719V46.6406C184.911 47.7552 183.635 48.3125 182.094 48.3125C180.031 48.3125 178.365 47.526 177.094 45.9531C175.823 44.3698 175.188 42.2552 175.188 39.6094V39.4219ZM180.469 39.75C180.469 41.1354 180.729 42.2344 181.25 43.0469C181.771 43.849 182.5 44.25 183.438 44.25C184.573 44.25 185.401 43.8698 185.922 43.1094V36C185.411 35.2292 184.594 34.8438 183.469 34.8438C182.531 34.8438 181.797 35.2656 181.266 36.1094C180.734 36.9427 180.469 38.1562 180.469 39.75ZM207.906 40.2812V48H202.422V25.25H211.5C213.24 25.25 214.776 25.5729 216.109 26.2188C217.453 26.8542 218.49 27.7656 219.219 28.9531C219.958 30.1302 220.328 31.4688 220.328 32.9688C220.328 35.1875 219.531 36.9635 217.938 38.2969C216.354 39.6198 214.177 40.2812 211.406 40.2812H207.906ZM207.906 36.0469H211.5C212.562 36.0469 213.37 35.7812 213.922 35.25C214.484 34.7188 214.766 33.9688 214.766 33C214.766 31.9375 214.479 31.0885 213.906 30.4531C213.333 29.8177 212.552 29.4948 211.562 29.4844H207.906V36.0469ZM232.359 48C232.172 47.6562 232.005 47.151 231.859 46.4844C230.891 47.7031 229.536 48.3125 227.797 48.3125C226.203 48.3125 224.849 47.8333 223.734 46.875C222.62 45.9062 222.062 44.6927 222.062 43.2344C222.062 41.401 222.74 40.0156 224.094 39.0781C225.448 38.1406 227.417 37.6719 230 37.6719H231.625V36.7812C231.625 35.2292 230.953 34.4531 229.609 34.4531C228.359 34.4531 227.734 35.0677 227.734 36.2969H222.469C222.469 34.6615 223.161 33.3333 224.547 32.3125C225.943 31.2917 227.719 30.7812 229.875 30.7812C232.031 30.7812 233.734 31.3073 234.984 32.3594C236.234 33.4115 236.875 34.8542 236.906 36.6875V44.1719C236.927 45.724 237.167 46.9115 237.625 47.7344V48H232.359ZM229.062 44.5625C229.719 44.5625 230.26 44.4219 230.688 44.1406C231.125 43.8594 231.438 43.5417 231.625 43.1875V40.4844H230.094C228.26 40.4844 227.344 41.3073 227.344 42.9531C227.344 43.4323 227.505 43.8229 227.828 44.125C228.151 44.4167 228.562 44.5625 229.062 44.5625ZM250.062 35.8594L248.328 35.7344C246.672 35.7344 245.609 36.2552 245.141 37.2969V48H239.875V31.0938H244.812L244.984 33.2656C245.87 31.6094 247.104 30.7812 248.688 30.7812C249.25 30.7812 249.74 30.8438 250.156 30.9688L250.062 35.8594ZM261.016 48C260.828 47.6562 260.661 47.151 260.516 46.4844C259.547 47.7031 258.193 48.3125 256.453 48.3125C254.859 48.3125 253.505 47.8333 252.391 46.875C251.276 45.9062 250.719 44.6927 250.719 43.2344C250.719 41.401 251.396 40.0156 252.75 39.0781C254.104 38.1406 256.073 37.6719 258.656 37.6719H260.281V36.7812C260.281 35.2292 259.609 34.4531 258.266 34.4531C257.016 34.4531 256.391 35.0677 256.391 36.2969H251.125C251.125 34.6615 251.818 33.3333 253.203 32.3125C254.599 31.2917 256.375 30.7812 258.531 30.7812C260.688 30.7812 262.391 31.3073 263.641 32.3594C264.891 33.4115 265.531 34.8542 265.562 36.6875V44.1719C265.583 45.724 265.823 46.9115 266.281 47.7344V48H261.016ZM257.719 44.5625C258.375 44.5625 258.917 44.4219 259.344 44.1406C259.781 43.8594 260.094 43.5417 260.281 43.1875V40.4844H258.75C256.917 40.4844 256 41.3073 256 42.9531C256 43.4323 256.161 43.8229 256.484 44.125C256.807 44.4167 257.219 44.5625 257.719 44.5625ZM267.828 39.4219C267.828 36.7448 268.406 34.6354 269.562 33.0938C270.719 31.5521 272.333 30.7812 274.406 30.7812C275.917 30.7812 277.188 31.375 278.219 32.5625V24H283.5V48H278.766L278.5 46.1875C277.417 47.6042 276.042 48.3125 274.375 48.3125C272.365 48.3125 270.771 47.5417 269.594 46C268.417 44.4583 267.828 42.2656 267.828 39.4219ZM273.094 39.75C273.094 42.75 273.969 44.25 275.719 44.25C276.885 44.25 277.719 43.7604 278.219 42.7812V36.3438C277.74 35.3438 276.917 34.8438 275.75 34.8438C274.125 34.8438 273.245 36.1562 273.109 38.7812L273.094 39.75ZM292.047 48H286.766V31.0938H292.047V48ZM286.453 26.7344C286.453 25.9844 286.724 25.3698 287.266 24.8906C287.807 24.4115 288.51 24.1719 289.375 24.1719C290.24 24.1719 290.943 24.4115 291.484 24.8906C292.026 25.3698 292.297 25.9844 292.297 26.7344C292.297 27.4844 292.026 28.099 291.484 28.5781C290.943 29.0573 290.24 29.2969 289.375 29.2969C288.51 29.2969 287.807 29.0573 287.266 28.5781C286.724 28.099 286.453 27.4844 286.453 26.7344ZM304.156 43.25C304.156 42.8021 303.922 42.4427 303.453 42.1719C302.984 41.901 302.094 41.6198 300.781 41.3281C299.469 41.0365 298.385 40.6562 297.531 40.1875C296.677 39.7083 296.026 39.1302 295.578 38.4531C295.13 37.776 294.906 37 294.906 36.125C294.906 34.5729 295.547 33.2969 296.828 32.2969C298.109 31.2865 299.786 30.7812 301.859 30.7812C304.089 30.7812 305.88 31.2865 307.234 32.2969C308.589 33.3073 309.266 34.6354 309.266 36.2812H303.984C303.984 34.9271 303.271 34.25 301.844 34.25C301.292 34.25 300.828 34.4062 300.453 34.7188C300.078 35.0208 299.891 35.401 299.891 35.8594C299.891 36.3281 300.12 36.7083 300.578 37C301.036 37.2917 301.766 37.5312 302.766 37.7188C303.776 37.9062 304.661 38.1302 305.422 38.3906C307.964 39.2656 309.234 40.8333 309.234 43.0938C309.234 44.6354 308.547 45.8906 307.172 46.8594C305.807 47.8281 304.036 48.3125 301.859 48.3125C300.411 48.3125 299.12 48.0521 297.984 47.5312C296.849 47.0104 295.964 46.3021 295.328 45.4062C294.693 44.5104 294.375 43.5677 294.375 42.5781H299.297C299.318 43.3594 299.578 43.9323 300.078 44.2969C300.578 44.651 301.219 44.8281 302 44.8281C302.719 44.8281 303.255 44.6823 303.609 44.3906C303.974 44.099 304.156 43.7188 304.156 43.25ZM319.891 48.3125C317.297 48.3125 315.198 47.5417 313.594 46C311.99 44.4479 311.188 42.4323 311.188 39.9531V39.5156C311.188 37.7865 311.505 36.2604 312.141 34.9375C312.786 33.6146 313.724 32.5938 314.953 31.875C316.182 31.1458 317.641 30.7812 319.328 30.7812C321.703 30.7812 323.578 31.5208 324.953 33C326.328 34.4688 327.016 36.5208 327.016 39.1562V41.2031H316.547C316.734 42.151 317.146 42.8958 317.781 43.4375C318.417 43.9792 319.24 44.25 320.25 44.25C321.917 44.25 323.219 43.6667 324.156 42.5L326.562 45.3438C325.906 46.25 324.974 46.974 323.766 47.5156C322.568 48.0469 321.276 48.3125 319.891 48.3125ZM319.297 34.8438C317.755 34.8438 316.839 35.8646 316.547 37.9062H321.859V37.5C321.88 36.6562 321.667 36.0052 321.219 35.5469C320.771 35.0781 320.13 34.8438 319.297 34.8438Z" fill="white"/>
</g>
<defs>
<clipPath id="clip0_211_2">
<rect width="334" height="75" fill="white"/>
</clipPath>
</defs>
</svg>
