<svg width="273" height="75" viewBox="0 0 273 75" fill="none" xmlns="http://www.w3.org/2000/svg">
<rect width="273" height="75" fill="black"/>
<rect x="38.3381" y="21.4937" width="43.705" height="38.6076" rx="8" fill="white"/>
<path d="M48.4101 25.6076C48.4101 21.9987 49.7555 18.5375 52.1503 15.9856C54.5451 13.4337 57.7932 12 61.1799 12C64.5667 12 67.8147 13.4337 70.2095 15.9856C72.6043 18.5375 73.9497 21.9987 73.9497 25.6076H71.5173C71.5173 22.6861 70.4282 19.8842 68.4896 17.8184C66.5509 15.7526 63.9216 14.592 61.1799 14.592C58.4383 14.592 55.8089 15.7526 53.8703 17.8184C51.9316 19.8842 50.8425 22.6861 50.8425 25.6076H48.4101Z" fill="white"/>
<path d="M60.9998 30.4735L66.208 35.8478L42.9238 59.6067L41.7453 59.1507L40.8614 58.5426L40.1248 57.9346L39.5356 57.0225L39.0936 56.4145L38.799 55.6545L38.5044 54.7424L38.3794 53.8151L60.9998 30.4735Z" fill="black"/>
<path d="M55.8618 35.7953L61.0701 30.421L82.0299 52.049V53.1799L81.8838 54.2864L81.6668 55.3504L81.2946 56.4145L80.1936 57.9346L79.4571 58.5426L78.7205 58.9986L55.8618 35.7953Z" fill="black"/>
<path d="M113.656 39.2969H119.125C119.052 40.8802 118.625 42.276 117.844 43.4844C117.062 44.6927 115.979 45.6354 114.594 46.3125C113.219 46.9792 111.594 47.3125 109.719 47.3125C108.198 47.3125 106.839 47.0573 105.641 46.5469C104.453 46.0365 103.443 45.3021 102.609 44.3438C101.786 43.3854 101.156 42.224 100.719 40.8594C100.292 39.4948 100.078 37.9583 100.078 36.25V35.0156C100.078 33.3073 100.302 31.7708 100.75 30.4062C101.208 29.0312 101.854 27.8646 102.688 26.9062C103.531 25.9375 104.542 25.1979 105.719 24.6875C106.896 24.1771 108.203 23.9219 109.641 23.9219C111.62 23.9219 113.292 24.276 114.656 24.9844C116.021 25.6927 117.078 26.6667 117.828 27.9062C118.578 29.1354 119.021 30.5365 119.156 32.1094H113.688C113.667 31.2552 113.521 30.5417 113.25 29.9688C112.979 29.3854 112.552 28.9479 111.969 28.6562C111.385 28.3646 110.609 28.2188 109.641 28.2188C108.964 28.2188 108.375 28.3438 107.875 28.5938C107.375 28.8438 106.958 29.2396 106.625 29.7812C106.292 30.3229 106.042 31.026 105.875 31.8906C105.719 32.7448 105.641 33.776 105.641 34.9844V36.25C105.641 37.4583 105.714 38.4896 105.859 39.3438C106.005 40.1979 106.24 40.8958 106.562 41.4375C106.885 41.9792 107.302 42.3802 107.812 42.6406C108.333 42.8906 108.969 43.0156 109.719 43.0156C110.552 43.0156 111.255 42.8854 111.828 42.625C112.401 42.3542 112.844 41.9479 113.156 41.4062C113.469 40.8542 113.635 40.151 113.656 39.2969ZM127.031 30.0938V47H121.75V30.0938H127.031ZM121.438 25.7344C121.438 24.9844 121.708 24.3698 122.25 23.8906C122.792 23.4115 123.495 23.1719 124.359 23.1719C125.224 23.1719 125.927 23.4115 126.469 23.8906C127.01 24.3698 127.281 24.9844 127.281 25.7344C127.281 26.4844 127.01 27.099 126.469 27.5781C125.927 28.0573 125.224 28.2969 124.359 28.2969C123.495 28.2969 122.792 28.0573 122.25 27.5781C121.708 27.099 121.438 26.4844 121.438 25.7344ZM139.188 30.0938V33.75H129V30.0938H139.188ZM131.141 25.8906H136.406V41.4844C136.406 41.9323 136.458 42.2812 136.562 42.5312C136.667 42.7708 136.844 42.9427 137.094 43.0469C137.354 43.1406 137.698 43.1875 138.125 43.1875C138.427 43.1875 138.677 43.1823 138.875 43.1719C139.073 43.151 139.26 43.125 139.438 43.0938V46.8594C138.99 47.0052 138.521 47.1146 138.031 47.1875C137.542 47.2708 137.021 47.3125 136.469 47.3125C135.344 47.3125 134.38 47.1354 133.578 46.7812C132.786 46.4271 132.182 45.8698 131.766 45.1094C131.349 44.349 131.141 43.3594 131.141 42.1406V25.8906ZM146.469 45.0156L150.844 30.0938H156.5L149.703 49.5156C149.557 49.9427 149.365 50.401 149.125 50.8906C148.885 51.3906 148.557 51.8646 148.141 52.3125C147.724 52.7604 147.188 53.125 146.531 53.4062C145.885 53.6875 145.083 53.8281 144.125 53.8281C143.615 53.8281 143.24 53.8021 143 53.75C142.771 53.7083 142.417 53.6302 141.938 53.5156V49.75C142.073 49.75 142.188 49.75 142.281 49.75C142.385 49.75 142.5 49.75 142.625 49.75C143.188 49.75 143.635 49.6927 143.969 49.5781C144.312 49.4635 144.573 49.2969 144.75 49.0781C144.938 48.8594 145.083 48.5938 145.188 48.2812L146.469 45.0156ZM145.359 30.0938L148.688 41.9219L149.266 47.5H145.734L139.719 30.0938H145.359ZM181.125 42.7812V47H169.625V42.7812H181.125ZM171.578 24.25V47H166.094V24.25H171.578ZM188.75 30.0938V47H183.469V30.0938H188.75ZM183.156 25.7344C183.156 24.9844 183.427 24.3698 183.969 23.8906C184.51 23.4115 185.214 23.1719 186.078 23.1719C186.943 23.1719 187.646 23.4115 188.188 23.8906C188.729 24.3698 189 24.9844 189 25.7344C189 26.4844 188.729 27.099 188.188 27.5781C187.646 28.0573 186.943 28.2969 186.078 28.2969C185.214 28.2969 184.51 28.0573 183.969 27.5781C183.427 27.099 183.156 26.4844 183.156 25.7344ZM202.625 30.0938H207.406V46.3438C207.406 47.9062 207.047 49.2292 206.328 50.3125C205.609 51.4062 204.604 52.2344 203.312 52.7969C202.031 53.3698 200.531 53.6562 198.812 53.6562C198.052 53.6562 197.276 53.5573 196.484 53.3594C195.693 53.1719 194.953 52.8906 194.266 52.5156C193.578 52.1406 193 51.6771 192.531 51.125L194.734 48.0312C195.161 48.5104 195.698 48.9167 196.344 49.25C196.99 49.5938 197.75 49.7656 198.625 49.7656C199.385 49.7656 200.021 49.6302 200.531 49.3594C201.052 49.0885 201.448 48.6927 201.719 48.1719C201.99 47.6615 202.125 47.0417 202.125 46.3125V34.0938L202.625 30.0938ZM191.391 38.75V38.4219C191.391 37.1406 191.547 35.974 191.859 34.9219C192.182 33.8594 192.641 32.9479 193.234 32.1875C193.839 31.4167 194.568 30.8229 195.422 30.4062C196.276 29.9896 197.24 29.7812 198.312 29.7812C199.469 29.7812 200.417 30.0052 201.156 30.4531C201.906 30.8906 202.505 31.5052 202.953 32.2969C203.411 33.0885 203.766 34.0156 204.016 35.0781C204.276 36.1302 204.495 37.2656 204.672 38.4844V38.875C204.495 40.0208 204.25 41.1042 203.938 42.125C203.635 43.1354 203.24 44.0312 202.75 44.8125C202.26 45.5938 201.646 46.2083 200.906 46.6562C200.177 47.0938 199.302 47.3125 198.281 47.3125C197.219 47.3125 196.26 47.099 195.406 46.6719C194.562 46.2448 193.839 45.6458 193.234 44.875C192.641 44.1042 192.182 43.1979 191.859 42.1562C191.547 41.1146 191.391 39.9792 191.391 38.75ZM196.656 38.4219V38.75C196.656 39.3854 196.714 39.974 196.828 40.5156C196.953 41.0573 197.141 41.5365 197.391 41.9531C197.641 42.3594 197.948 42.6771 198.312 42.9062C198.688 43.1354 199.125 43.25 199.625 43.25C200.385 43.25 201 43.0885 201.469 42.7656C201.938 42.4427 202.276 41.9844 202.484 41.3906C202.693 40.7969 202.781 40.099 202.75 39.2969V38.0625C202.771 37.375 202.724 36.7708 202.609 36.25C202.495 35.7188 202.312 35.276 202.062 34.9219C201.823 34.5677 201.5 34.3021 201.094 34.125C200.698 33.9375 200.219 33.8438 199.656 33.8438C199.167 33.8438 198.734 33.9583 198.359 34.1875C197.984 34.4167 197.672 34.7396 197.422 35.1562C197.172 35.5625 196.979 36.0469 196.844 36.6094C196.719 37.1615 196.656 37.7656 196.656 38.4219ZM215.594 23V47H210.328V23H215.594ZM214.969 37.9688L213.734 38C213.734 36.8125 213.88 35.7188 214.172 34.7188C214.464 33.7188 214.88 32.849 215.422 32.1094C215.964 31.3698 216.615 30.7969 217.375 30.3906C218.135 29.9844 218.979 29.7812 219.906 29.7812C220.74 29.7812 221.5 29.901 222.188 30.1406C222.885 30.3802 223.484 30.7656 223.984 31.2969C224.495 31.8281 224.885 32.5208 225.156 33.375C225.438 34.2292 225.578 35.2708 225.578 36.5V47H220.281V36.4688C220.281 35.7812 220.182 35.25 219.984 34.875C219.797 34.4896 219.526 34.224 219.172 34.0781C218.818 33.9219 218.385 33.8438 217.875 33.8438C217.26 33.8438 216.76 33.9479 216.375 34.1562C215.99 34.3646 215.693 34.6562 215.484 35.0312C215.286 35.3958 215.151 35.8281 215.078 36.3281C215.005 36.8281 214.969 37.375 214.969 37.9688ZM237.406 30.0938V33.75H227.219V30.0938H237.406ZM229.359 25.8906H234.625V41.4844C234.625 41.9323 234.677 42.2812 234.781 42.5312C234.885 42.7708 235.062 42.9427 235.312 43.0469C235.573 43.1406 235.917 43.1875 236.344 43.1875C236.646 43.1875 236.896 43.1823 237.094 43.1719C237.292 43.151 237.479 43.125 237.656 43.0938V46.8594C237.208 47.0052 236.74 47.1146 236.25 47.1875C235.76 47.2708 235.24 47.3125 234.688 47.3125C233.562 47.3125 232.599 47.1354 231.797 46.7812C231.005 46.4271 230.401 45.8698 229.984 45.1094C229.568 44.349 229.359 43.3594 229.359 42.1406V25.8906Z" fill="white"/>
</svg>
