<svg width="60" height="60" viewBox="0 0 60 60" fill="none" xmlns="http://www.w3.org/2000/svg">
<rect width="60" height="60" rx="10" fill="black"/>
<rect x="8.33789" y="14.4937" width="43.705" height="38.6076" rx="8" fill="white"/>
<path d="M18.4101 18.6076C18.4101 14.9987 19.7555 11.5375 22.1503 8.9856C24.5451 6.43368 27.7932 5.00003 31.1799 5.00003C34.5667 5.00003 37.8147 6.43368 40.2095 8.9856C42.6043 11.5375 43.9497 14.9987 43.9497 18.6076L41.5173 18.6076C41.5173 15.6861 40.4282 12.8842 38.4896 10.8184C36.5509 8.75255 33.9216 7.59198 31.1799 7.59198C28.4383 7.59198 25.8089 8.75255 23.8703 10.8184C21.9316 12.8842 20.8425 15.6861 20.8425 18.6076L18.4101 18.6076Z" fill="white"/>
<path d="M30.9995 23.4736L36.2078 28.848L12.9235 52.6068L11.745 52.1508L10.8611 51.5427L10.1246 50.9347L9.53533 50.0227L9.0934 49.4146L8.79877 48.6546L8.50415 47.7425L8.37913 46.8152L30.9995 23.4736Z" fill="black"/>
<path d="M25.8618 28.7954L31.0701 23.4211L52.0299 45.0491L52.0299 46.18L51.8838 47.2865L51.6668 48.3505L51.2946 49.4146L50.1936 50.9347L49.4571 51.5427L48.7205 51.9988L25.8618 28.7954Z" fill="black"/>
</svg>
